<svg width="33" height="33" viewBox="0 0 33 33" fill="none" xmlns="http://www.w3.org/2000/svg">
<path d="M22.5053 17.2204L15.7841 10.4545L20.7578 5.5256L19.4583 4.22618L10.9001 12.7845C10.5416 13.1429 10.1234 13.3222 9.64543 13.3222C9.16748 13.3222 8.74928 13.1429 8.39081 12.7845C8.03235 12.426 7.85312 12.0003 7.85312 11.5074C7.85312 11.0146 8.03235 10.5889 8.39081 10.2304L16.9043 1.71694C17.6212 1.00001 18.4651 0.641551 19.4359 0.641551C20.4068 0.641551 21.2507 1.00001 21.9676 1.71694L23.267 3.01637L25.5074 0.775975C25.8659 0.417512 26.2915 0.238281 26.7844 0.238281C27.2773 0.238281 27.703 0.417512 28.0614 0.775975L32.2286 4.9431C32.587 5.30156 32.7663 5.72724 32.7663 6.22012C32.7663 6.71301 32.587 7.13868 32.2286 7.49715L22.5053 17.2204ZM2.29695 32.4999C1.78913 32.4999 1.36345 32.3281 1.01993 31.9846C0.676402 31.6411 0.504639 31.2154 0.504639 30.7076V27.2574C0.504639 26.7794 0.594254 26.3239 0.773486 25.8908C0.952717 25.4576 1.20663 25.0767 1.53522 24.7482L13.2301 13.0085L19.996 19.7297L8.25639 31.4693C7.9278 31.7979 7.54693 32.0518 7.11379 32.2311C6.68065 32.4103 6.2251 32.4999 5.74715 32.4999H2.29695Z" fill="white"/>
</svg>
