<svg width="37" height="27" viewBox="0 0 37 27" fill="none" xmlns="http://www.w3.org/2000/svg">
<path fill-rule="evenodd" clip-rule="evenodd" d="M26.5952 15.1133C28.8453 16.6407 30.422 18.7102 30.422 21.4694V26.3966H36.9917V21.4694C36.9917 17.889 31.1283 15.7702 26.5952 15.1133Z" fill="white"/>
<path d="M13.998 13.2604C17.6263 13.2604 20.5676 10.319 20.5676 6.69073C20.5676 3.06242 17.6263 0.121094 13.998 0.121094C10.3697 0.121094 7.42834 3.06242 7.42834 6.69073C7.42834 10.319 10.3697 13.2604 13.998 13.2604Z" fill="white"/>
<path fill-rule="evenodd" clip-rule="evenodd" d="M23.8527 13.2604C27.4825 13.2604 30.4224 10.3205 30.4224 6.69073C30.4224 3.06101 27.4825 0.121094 23.8527 0.121094C23.0808 0.121094 22.3581 0.285334 21.6683 0.515272C23.0315 2.20695 23.8527 4.35851 23.8527 6.69073C23.8527 9.02295 23.0315 11.1745 21.6683 12.8662C22.3581 13.0961 23.0808 13.2604 23.8527 13.2604Z" fill="white"/>
<path fill-rule="evenodd" clip-rule="evenodd" d="M13.9983 14.9023C9.61305 14.9023 0.859009 17.1032 0.859009 21.472V26.3992H27.1376V21.472C27.1376 17.1032 18.3835 14.9023 13.9983 14.9023Z" fill="white"/>
</svg>
