<svg width="36" height="40" viewBox="0 0 36 40" fill="none" xmlns="http://www.w3.org/2000/svg">
<path d="M32.0635 3.9201H23.9113C23.0921 1.65777 20.9468 0.0195312 18.4115 0.0195312C15.8761 0.0195312 13.7308 1.65777 12.9117 3.9201H4.75946C2.61414 3.9201 0.858887 5.67536 0.858887 7.82068V35.1247C0.858887 37.27 2.61414 39.0253 4.75946 39.0253H32.0635C34.2088 39.0253 35.964 37.27 35.964 35.1247V7.82068C35.964 5.67536 34.2088 3.9201 32.0635 3.9201ZM18.4115 3.9201C19.4841 3.9201 20.3617 4.79773 20.3617 5.87039C20.3617 6.94305 19.4841 7.82068 18.4115 7.82068C17.3388 7.82068 16.4612 6.94305 16.4612 5.87039C16.4612 4.79773 17.3388 3.9201 18.4115 3.9201ZM22.312 31.2241H8.66003V27.3235H22.312V31.2241ZM28.1629 23.423H8.66003V19.5224H28.1629V23.423ZM28.1629 15.6218H8.66003V11.7212H28.1629V15.6218Z" fill="white"/>
</svg>
