<svg width="40" height="30" viewBox="0 0 40 30" fill="none" xmlns="http://www.w3.org/2000/svg">
<path d="M23.5399 4.45343V0.582031H39.0255V4.45343H23.5399ZM23.5399 12.1962V8.32482H39.0255V12.1962H23.5399ZM23.5399 19.939V16.0676H39.0255V19.939H23.5399ZM11.9257 18.0033C10.3126 18.0033 8.94151 17.4387 7.81235 16.3096C6.68319 15.1804 6.11861 13.8093 6.11861 12.1962C6.11861 10.5831 6.68319 9.21201 7.81235 8.08286C8.94151 6.9537 10.3126 6.38912 11.9257 6.38912C13.5388 6.38912 14.9099 6.9537 16.0391 8.08286C17.1682 9.21201 17.7328 10.5831 17.7328 12.1962C17.7328 13.8093 17.1682 15.1804 16.0391 16.3096C14.9099 17.4387 13.5388 18.0033 11.9257 18.0033ZM0.311523 29.6175V25.9397C0.311523 25.2622 0.472832 24.6169 0.795448 24.004C1.11806 23.391 1.56973 22.9071 2.15044 22.5522C3.60221 21.6811 5.1427 21.0278 6.77191 20.5923C8.40112 20.1568 10.1191 19.939 11.9257 19.939C13.7324 19.939 15.4503 20.1568 17.0795 20.5923C18.7087 21.0278 20.2492 21.6811 21.701 22.5522C22.2817 22.9071 22.7333 23.391 23.056 24.004C23.3786 24.6169 23.5399 25.2622 23.5399 25.9397V29.6175H0.311523Z" fill="white"/>
</svg>
